<?xml version="1.0" standalone="no"?>
<!DOCTYPE svg PUBLIC "-//W3C//DTD SVG 20010904//EN"
 "http://www.w3.org/TR/2001/REC-SVG-20010904/DTD/svg10.dtd">
<svg version="1.0" xmlns="http://www.w3.org/2000/svg"
 width="820.000000pt" height="820.000000pt" viewBox="0 0 820.000000 820.000000"
 preserveAspectRatio="xMidYMid meet">
<metadata>
Created by potrace 1.14, written by Peter Selinger 2001-2017
</metadata>
<g transform="translate(0.000000,820.000000) scale(0.100000,-0.100000)"
fill="#000000" stroke="none">
<path d="M5805 8099 c-16 -5 -43 -11 -60 -14 -70 -11 -92 -16 -135 -25 -25 -6
-56 -12 -70 -14 -14 -3 -25 -5 -25 -6 0 -1 -9 -3 -20 -4 -11 -1 -38 -6 -60
-11 -22 -4 -47 -9 -55 -11 -18 -3 -53 -12 -60 -14 -3 -1 -8 -2 -13 -1 -4 1
-28 -4 -55 -10 -26 -6 -62 -13 -80 -14 -18 -2 -36 -6 -40 -9 -6 -4 -55 -13
-117 -22 -11 -1 -20 -3 -20 -4 0 -2 -9 -4 -20 -5 -11 -1 -47 -8 -80 -15 -33
-7 -67 -14 -75 -15 -8 -2 -15 -4 -15 -5 0 -1 -13 -3 -30 -5 -24 -3 -81 -14
-105 -20 -6 -1 -65 -13 -96 -19 -12 -2 -37 -7 -55 -10 -19 -3 -45 -8 -59 -12
-14 -3 -34 -7 -46 -9 -11 -1 -47 -9 -80 -16 -32 -7 -66 -13 -74 -15 -52 -7
-100 -17 -133 -25 -21 -6 -55 -13 -75 -16 -68 -10 -77 -11 -77 -13 0 -2 -18
-6 -65 -14 -19 -3 -46 -8 -60 -11 -14 -3 -36 -7 -50 -10 -43 -8 -74 -14 -100
-20 -37 -8 -63 -13 -106 -19 -22 -4 -55 -11 -74 -16 -19 -5 -51 -12 -70 -15
-35 -5 -109 -19 -165 -31 -16 -3 -55 -10 -85 -16 -30 -5 -62 -12 -70 -14 -8
-3 -16 -4 -17 -2 -3 6 -53 -54 -54 -65 -1 -7 -2 -25 -4 -42 -3 -29 -14 -214
-20 -320 -1 -27 -6 -108 -10 -180 -4 -71 -8 -141 -9 -155 0 -14 -5 -25 -11
-25 -13 1 -100 15 -128 21 -12 3 -33 7 -47 8 -14 2 -38 6 -55 9 -16 4 -43 9
-60 12 -16 3 -41 7 -55 10 -14 3 -36 7 -50 10 -122 22 -208 37 -225 39 -11 2
-33 6 -50 9 -27 6 -78 14 -130 22 -11 2 -20 4 -20 5 0 1 -9 3 -20 4 -11 2 -40
7 -65 11 -25 4 -54 9 -65 11 -11 1 -29 5 -40 7 -21 5 -132 24 -175 31 -14 3
-25 5 -25 6 0 2 -34 8 -85 15 -25 3 -52 8 -60 10 -13 3 -55 11 -115 20 -44 7
-91 16 -105 20 -8 3 -31 7 -50 10 -19 2 -48 7 -65 11 -16 3 -39 7 -50 9 -30 4
-147 24 -171 29 -12 2 -37 7 -55 10 -19 3 -44 8 -55 10 -24 5 -89 16 -119 21
-11 2 -35 6 -52 9 -18 3 -45 8 -60 11 -16 3 -39 7 -53 10 -25 5 -41 8 -140 25
-30 5 -71 13 -90 17 -19 4 -61 7 -93 6 -48 0 -66 -6 -100 -30 -85 -59 -115
-173 -67 -257 12 -22 33 -60 47 -85 13 -25 33 -59 43 -76 11 -16 26 -43 34
-60 8 -16 31 -57 51 -90 19 -33 40 -69 46 -80 5 -11 15 -29 22 -40 7 -11 32
-56 57 -100 24 -44 50 -86 57 -93 7 -7 13 -17 13 -22 0 -5 23 -48 51 -97 28
-48 61 -106 74 -128 45 -80 66 -118 107 -188 22 -40 51 -90 62 -112 12 -22 23
-42 26 -45 5 -5 12 -17 58 -99 14 -25 33 -59 43 -76 10 -16 30 -52 44 -80 15
-27 32 -57 39 -65 6 -8 16 -24 22 -35 6 -11 28 -51 49 -90 22 -38 60 -107 87
-153 26 -46 48 -87 48 -91 0 -4 9 -17 20 -29 12 -12 19 -22 16 -22 -2 0 43
-81 100 -181 57 -99 104 -185 104 -190 0 -5 5 -9 10 -9 6 0 10 -4 10 -8 0 -12
103 -196 112 -200 5 -2 8 -7 8 -12 0 -5 33 -66 73 -137 41 -70 85 -148 99
-173 14 -25 35 -63 48 -85 13 -22 34 -60 48 -85 14 -25 36 -62 49 -82 12 -21
23 -42 23 -48 0 -5 5 -10 10 -10 6 0 10 -5 10 -10 0 -6 35 -73 79 -148 43 -75
88 -154 100 -175 20 -36 83 -146 121 -212 47 -83 146 -255 168 -295 14 -25 50
-88 80 -140 30 -52 66 -115 80 -140 20 -38 56 -101 102 -180 74 -129 186 -327
189 -335 2 -5 8 -12 12 -15 5 -3 14 -19 21 -35 21 -48 91 -170 100 -173 4 -2
8 -8 8 -13 0 -8 91 -174 107 -194 4 -5 15 -23 23 -40 8 -16 17 -32 20 -35 3
-3 11 -16 17 -30 7 -14 25 -47 41 -75 16 -27 39 -68 52 -90 12 -22 30 -54 41
-71 18 -30 18 -30 -15 -132 -18 -56 -35 -104 -37 -106 -2 -2 -80 149 -173 335
-93 186 -172 336 -175 334 -3 -3 -7 -18 -9 -33 -2 -15 -6 -29 -10 -32 -4 -3
-8 -15 -10 -28 -2 -12 -10 -35 -18 -50 -7 -15 -14 -32 -14 -39 0 -11 -76 -251
-100 -318 -6 -16 -13 -37 -15 -45 -5 -22 -104 -329 -120 -371 -16 -42 -24 -22
103 -242 51 -87 92 -162 92 -167 0 -4 3 -10 8 -12 8 -4 92 -147 92 -158 0 -10
60 -19 65 -9 3 4 21 3 40 -1 19 -4 37 -5 39 -1 2 3 66 4 141 1 75 -3 138 -3
140 -1 4 4 122 4 140 1 40 -9 54 1 71 53 10 28 19 59 20 67 2 8 7 23 13 35 5
11 26 71 45 133 49 155 48 154 80 97 14 -26 26 -51 26 -56 0 -5 3 -9 8 -9 4 0
12 -10 18 -23 23 -49 59 -112 67 -115 4 -2 7 -9 7 -17 0 -7 7 -18 15 -25 8 -7
13 -15 11 -19 -8 -13 65 -101 104 -126 71 -45 180 -30 241 33 14 15 42 58 62
96 59 111 56 111 94 -11 34 -110 46 -133 57 -115 3 6 20 7 40 2 19 -4 37 -6
39 -3 4 4 403 6 423 2 5 -1 27 -1 49 0 37 1 41 4 57 44 36 87 41 102 43 110 2
4 4 9 5 12 1 3 3 8 4 13 2 4 8 21 16 37 26 59 39 91 58 140 10 28 23 59 27 70
5 11 9 22 10 25 1 3 9 22 18 44 9 21 17 44 17 50 0 7 4 16 9 22 5 5 18 34 29
64 11 30 26 69 33 85 7 17 13 32 14 35 1 3 9 22 18 44 9 21 17 41 17 44 0 5
49 126 80 197 12 28 109 271 130 325 9 25 22 56 27 70 6 14 52 129 102 255 50
127 96 239 101 250 11 24 100 246 104 260 1 6 10 27 19 49 9 21 17 44 17 52 0
7 5 16 10 19 27 16 -14 20 -209 20 -134 0 -211 4 -211 10 1 5 14 33 30 60 16
28 40 70 53 95 13 25 40 74 60 108 21 35 37 67 37 72 0 4 7 13 15 20 8 7 15
21 15 30 0 10 4 20 9 22 4 2 24 32 43 68 46 85 105 191 118 210 6 8 15 27 21
43 6 15 15 27 21 27 5 0 7 4 3 9 -3 5 2 16 10 24 8 9 15 18 15 20 0 3 17 36
39 74 21 37 53 95 71 128 18 33 71 128 118 210 86 153 113 201 157 280 47 85
78 140 116 208 22 38 39 73 39 78 0 5 5 9 10 9 6 0 10 6 10 13 0 7 11 29 25
50 14 20 23 37 19 37 -4 0 0 8 8 18 19 21 97 164 96 176 0 5 4 12 9 15 8 5 47
73 145 251 14 25 35 63 48 85 62 109 216 385 234 420 12 22 24 42 29 43 4 2 7
7 7 12 0 4 38 76 85 159 47 83 85 154 85 158 0 3 6 14 14 22 7 9 29 45 48 81
47 88 98 179 119 215 10 17 35 62 55 100 20 39 40 72 43 75 4 3 14 20 22 38 8
17 18 32 22 32 5 0 6 4 2 9 -3 5 0 15 7 23 7 7 22 31 34 53 11 22 31 58 44 80
45 80 108 191 137 245 17 30 41 73 53 95 45 76 28 189 -36 249 -61 56 -131 63
-289 29 -16 -4 -34 -8 -40 -9 -5 -1 -30 -5 -55 -9 -25 -3 -65 -11 -90 -17 -25
-5 -61 -12 -80 -14 -19 -2 -46 -7 -60 -10 -14 -4 -34 -8 -45 -9 -11 -2 -33 -6
-50 -9 -16 -4 -46 -9 -65 -12 -19 -3 -93 -17 -165 -31 -71 -13 -141 -26 -155
-28 -59 -9 -111 -18 -170 -31 -14 -3 -43 -7 -65 -10 -21 -3 -43 -8 -47 -10 -4
-3 -24 -7 -45 -9 -21 -3 -49 -7 -63 -10 -14 -2 -38 -7 -55 -10 -16 -2 -64 -12
-105 -20 -41 -9 -91 -17 -110 -20 -19 -2 -46 -6 -60 -9 -14 -3 -36 -8 -50 -11
-14 -3 -38 -7 -55 -10 -30 -4 -44 -7 -140 -25 -93 -18 -110 -21 -135 -25 -14
-2 -44 -8 -68 -13 -38 -9 -42 -8 -38 6 15 50 58 206 61 216 1 6 5 18 8 26 3 8
20 67 37 130 17 63 33 120 34 125 2 6 4 13 5 17 1 4 8 26 16 48 8 22 15 42 15
45 0 3 2 10 5 17 14 45 145 515 145 521 0 5 -7 24 -16 42 -23 50 -80 65 -159
44z m-1016 -6905 c-25 -56 -27 -59 -35 -51 -3 3 7 28 22 56 16 27 30 49 31 47
2 -2 -6 -25 -18 -52z"/>
<path d="M1099 2625 c0 -5 -1 -530 -1 -1165 l-1 -1155 177 -5 c98 -3 180 -2
182 1 2 4 20 3 39 -1 19 -4 37 -5 39 -1 3 4 30 4 61 1 31 -3 58 -3 61 1 3 5
10 6 18 3 10 -4 12 67 12 374 -1 208 1 389 4 403 l5 24 250 0 c221 0 297 4
370 19 11 3 21 5 23 6 1 2 5 3 10 5 34 9 48 30 52 80 0 3 11 35 24 72 13 38
54 163 91 278 36 116 69 217 72 225 3 8 7 22 9 31 2 9 9 29 15 45 7 16 13 34
14 40 2 5 31 97 65 203 57 173 62 194 50 217 -31 57 -196 204 -229 204 -6 0
-11 5 -11 10 0 6 -9 10 -19 10 -11 0 -22 4 -26 9 -6 11 -122 47 -175 56 -19 3
-48 9 -65 12 -55 11 -1115 9 -1116 -2z m910 -449 c116 -12 222 -89 248 -181
19 -67 23 -147 10 -216 -14 -71 -93 -179 -133 -179 -8 0 -14 -4 -14 -8 0 -5
-6 -9 -12 -10 -7 0 -33 -6 -58 -12 -25 -7 -116 -13 -202 -14 -137 -2 -158 0
-159 13 0 9 -2 149 -2 311 -2 277 -1 295 16 300 22 6 233 3 306 -4z"/>
<path d="M6368 2589 c-9 -24 -27 -73 -41 -109 -13 -36 -33 -87 -43 -115 -11
-27 -21 -52 -24 -55 -3 -3 -11 -23 -19 -45 -8 -22 -18 -51 -24 -65 -6 -14 -11
-27 -12 -30 -5 -14 -18 -47 -25 -65 -5 -11 -23 -58 -41 -105 -17 -47 -36 -91
-42 -97 -5 -7 -6 -13 -2 -13 4 0 3 -6 -2 -12 -10 -14 -10 -25 0 -48 7 -16 82
-227 147 -415 21 -60 44 -123 51 -140 15 -38 20 -55 22 -80 2 -21 10 -21 -429
-24 l-72 -1 -67 -172 c-37 -95 -76 -193 -86 -217 -26 -59 -11 -75 56 -61 6 1
15 1 20 0 12 -2 368 -2 375 1 3 1 10 0 15 -1 26 -6 137 -4 141 2 3 4 15 4 27
0 12 -4 54 -7 94 -6 74 2 93 -6 100 -45 5 -24 15 -53 33 -96 5 -11 14 -38 21
-60 6 -22 15 -44 19 -50 4 -5 13 -34 21 -63 7 -28 16 -52 21 -52 4 0 8 -11 8
-24 0 -22 34 -44 44 -28 2 4 66 5 141 2 75 -3 139 -2 140 1 2 3 29 2 60 -1 31
-3 58 -3 61 1 2 4 19 3 38 -1 19 -4 37 -5 40 -2 3 2 32 5 66 4 61 0 74 10 48
36 -7 7 -8 12 -4 12 5 0 4 6 -1 12 -8 10 -33 73 -38 98 -1 3 -6 16 -12 30 -10
21 -21 51 -28 70 -1 3 -5 12 -8 20 -9 23 -56 148 -77 205 -33 93 -110 300
-120 320 -5 11 -25 65 -45 120 -20 55 -39 107 -42 115 -3 8 -7 17 -8 20 -1 3
-5 14 -9 25 -47 125 -72 191 -116 310 -28 77 -56 149 -60 160 -12 27 -101 267
-104 280 -2 6 -8 24 -15 40 -6 17 -19 50 -28 75 -9 25 -21 51 -26 58 -5 6 -7
12 -4 12 3 0 -1 17 -10 38 -9 20 -31 78 -49 129 -18 51 -39 104 -47 119 l-14
26 -15 -43z"/>
</g>
</svg>
